<svg fill="#000000" height="200px" width="200px" version="1.1" id="Layer_1" xmlns="http://www.w3.org/2000/svg"
	xmlns:xlink="http://www.w3.org/1999/xlink" viewBox="0 0 512 512" xml:space="preserve">
	<g id="SVGRepo_bgCarrier" stroke-width="0"></g>
	<g id="SVGRepo_tracerCarrier" stroke-linecap="round" stroke-linejoin="round"></g>
	<g id="SVGRepo_iconCarrier">
		<g>
			<g>
				<g>
					<path
						d="M114.626,370.715h114.629c5.801,0,10.504-4.703,10.504-10.504v-57.315c0-5.801-4.703-10.504-10.504-10.504H114.626 c-5.801,0-10.504,4.703-10.504,10.504v57.314C104.122,366.012,108.824,370.715,114.626,370.715z M125.13,313.4h93.621v36.305 H125.13C125.13,349.705,125.13,313.4,125.13,313.4z">
					</path>
					<path
						d="M154.889,271.383h74.366c5.801,0,10.504-4.703,10.504-10.504c0-5.801-4.703-10.504-10.504-10.504h-74.366 c-5.801,0-10.504,4.703-10.504,10.504C144.385,266.681,149.088,271.383,154.889,271.383z">
					</path>
					<path
						d="M114.626,271.383h0.349c5.801,0,10.504-4.703,10.504-10.504c0-5.801-4.703-10.504-10.504-10.504h-0.349 c-5.801,0-10.504,4.703-10.504,10.504C104.122,266.681,108.824,271.383,114.626,271.383z">
					</path>
					<path
						d="M459.057,500.775c-1.007-14.782-24.83-194.654-27.487-233.331v-45.461c0-5.801-4.704-10.504-10.504-10.504h-21.392 v-53.961c0-61.995-50.438-112.433-112.432-112.433h-81.871v-0.208c0-15.687-12.761-28.448-28.448-28.448h-9.962 c-8.599,0-16.312,3.839-21.532,9.888c-10.519-0.426-40.481-3.472-63.621-23.718C77.442-1.22,70.806-0.779,66.984,3.587 c-3.82,4.366-3.377,11.002,0.988,14.822c15.541,13.599,33.172,20.84,48.11,24.687L59.728,64.293 c-5.43,2.042-8.176,8.1-6.133,13.529c1.584,4.212,5.584,6.809,9.833,6.809c1.229,0,2.478-0.217,3.696-0.675l71.387-26.85v17.182 c-13.051,2.579-22.925,14.109-22.925,27.906v17.57c-31.974,2.222-57.314,28.927-57.314,61.456v269.155 c0,33.98,27.645,61.625,61.625,61.625h104.091c33.98,0,61.625-27.645,61.625-61.625V181.219 c0-32.529-25.339-59.235-57.314-61.456v-17.571c0-13.797-9.874-25.328-22.926-27.906v-8.191h81.871 c50.411,0,91.424,41.012,91.424,91.425v53.962h-21.791c-5.8,0-10.504,4.703-10.504,10.504v45.503 c-2.659,38.663-26.493,218.746-27.484,233.289c-0.198,2.903,0.817,5.758,2.804,7.884c1.987,2.126,4.766,3.334,7.676,3.334 h119.211c2.911,0,5.689-1.207,7.676-3.334C458.238,506.534,459.254,503.679,459.057,500.775z M159.518,44.877 c0-4.102,3.338-7.44,7.441-7.44h9.962c4.103,0,7.44,3.338,7.44,7.44v28.865h-24.843V44.877z M223.985,490.991H119.895 c-19.946,0-36.568-14.457-39.968-33.44h184.027C260.553,476.534,243.931,490.991,223.985,490.991z M264.6,436.542H79.278V195.051 H264.6V436.542z M223.985,140.603c19.946,0,36.568,14.457,39.968,33.44H79.926c3.4-18.983,20.022-33.44,39.968-33.44H223.985z M207.287,102.192v17.403h-70.694v-17.403c0-4.103,3.338-7.44,7.44-7.44h55.814C203.95,94.751,207.287,98.09,207.287,102.192z M367.378,232.489h43.182v24.843h-43.182V232.489z M366.628,278.341h44.686c2.906,36.301,18.593,146.259,20.999,165.618h-86.683 C348.035,424.601,363.722,314.643,366.628,278.341z M340.689,490.987c0.676-8.239,1.502-16.863,2.493-26.019h91.583 c0.985,9.083,1.81,17.706,2.489,26.019H340.689z">
					</path>
				</g>
			</g>
		</g>
	</g>
</svg>