<!--?xml version="1.0" encoding="utf-8"?-->
<!-- Svg Vector Icons : http://www.onlinewebfonts.com/icon -->

<svg version="1.1" xmlns="http://www.w3.org/2000/svg" xmlns:xlink="http://www.w3.org/1999/xlink" x="0px" y="0px" viewBox="0 0 256 256" enable-background="new 0 0 256 256" xml:space="preserve">
<metadata> Svg Vector Icons : http://www.onlinewebfonts.com/icon </metadata>
<g> <path fill="00000" data-title="Layer 0" xs="0" d="M178.3,238.9H28.8c-10.4,0-18.8-7.8-18.8-17.5V34.6c0-9.6,8.5-17.5,18.8-17.5h149.5 c10.4,0,18.8,7.8,18.8,17.5v26.9c0,3.9-3.2,7.1-7.1,7.1c-3.9,0-7.1-3.2-7.1-7.1V34.6c0-1.5-1.9-3.3-4.6-3.3H28.8 c-2.7,0-4.6,1.7-4.6,3.3v186.8c0,1.5,1.9,3.3,4.6,3.3h149.5c2.7,0,4.6-1.7,4.6-3.3v-11c0-3.9,3.2-7.1,7.1-7.1 c3.9,0,7.1,3.2,7.1,7.1v11C197.2,231.1,188.7,238.9,178.3,238.9L178.3,238.9z"/> <path fill="#040000" data-title="Layer 1" xs="1" d="M153.4,87.2H53.7c-3.9,0-7.1-3.2-7.1-7.2c0-3.9,3.2-7.2,7.1-7.2h99.7c3.9,0,7.1,3.2,7.1,7.2 C160.5,84,157.3,87.2,153.4,87.2L153.4,87.2z M117.8,137H53.7c-3.9,0-7.1-3.2-7.1-7.2c0-3.9,3.2-7.2,7.1-7.2h64.1 c3.9,0,7.1,3.2,7.1,7.2C125,133.8,121.8,137,117.8,137z M117.8,186.8H53.7c-3.9,0-7.1-3-7.1-7c0-3.9,3.2-7,7.1-7h64.1 c3.9,0,7.1,3,7.1,7C125,183.8,121.8,186.8,117.8,186.8z"/> <path fill="#000000" data-title="Layer 2" xs="2" d="M234.2,186.9H158c-4,0-7.7-2.1-9.9-5.6c-2.3-3.8-2.5-8.6-0.5-12.6l38.1-75c2-4,6-6.5,10.4-6.5 c4.3,0,8.3,2.5,10.4,6.5l38.1,75c2,4,1.8,8.8-0.5,12.6C241.9,184.8,238.2,186.9,234.2,186.9z M161.6,172.7h69l-34.5-67.9 L161.6,172.7z"/> <path fill="#040000" data-title="Layer 3" xs="3" d="M196.3,151.3c-3.9,0-7.2-3.2-7.2-7.1V130c0-3.9,3.2-7.1,7.2-7.1c3.9,0,7.2,3.2,7.2,7.1v14.2 C203.4,148.2,200.2,151.3,196.3,151.3z M196.1,169c-4,0-7.2-3.3-7.2-7.3c0-4,3.3-7.2,7.2-7.2c4,0,7.3,3.3,7.3,7.2 C203.4,165.7,200.2,169,196.1,169z"/></g>
</svg>