<svg fill="#000000" height="200px" width="200px" version="1.1" id="Layer_1" xmlns="http://www.w3.org/2000/svg"
    xmlns:xlink="http://www.w3.org/1999/xlink" viewBox="0 0 512 512" xml:space="preserve">
    <g id="SVGRepo_bgCarrier" stroke-width="0"></g>
    <g id="SVGRepo_tracerCarrier" stroke-linecap="round" stroke-linejoin="round"></g>
    <g id="SVGRepo_iconCarrier">
        <g>
            <g>
                <g>
                    <path
                        d="M398.821,361.421v-218.6C398.821,64.069,334.752,0,256,0S113.179,64.069,113.179,142.821v218.6 c-36.227,3.407-64.674,33.981-64.674,71.084v68.716c0,5.953,4.826,10.779,10.779,10.779h393.432 c5.953,0,10.779-4.826,10.779-10.779v-68.716C463.495,395.402,435.048,364.829,398.821,361.421z M134.737,142.821 c0-66.865,54.398-121.263,121.263-121.263s121.263,54.398,121.263,121.263v169.768h-37.726v-37.726 c0-5.953-4.826-10.779-10.779-10.779h-61.979v-24.591c42.477-5.324,75.453-41.638,75.453-85.534 c0-47.548-38.683-86.232-86.232-86.232s-86.232,38.684-86.232,86.232c0,43.896,32.976,80.21,75.453,85.534v24.591h-61.979 c-5.953,0-10.779,4.826-10.779,10.779v37.726h-37.726V142.821z M317.979,285.642v26.947H194.021v-26.947H317.979z M256,218.633 c-35.661,0-64.674-29.013-64.674-64.674S220.339,89.285,256,89.285s64.674,29.013,64.674,64.674S291.661,218.633,256,218.633z M134.737,334.147h242.526v26.947H134.737V334.147z M441.937,490.442H70.063v-43.116h194.56c5.953,0,10.779-4.826,10.779-10.779 s-4.826-10.779-10.779-10.779H70.531c3.301-24.312,24.182-43.116,49.385-43.116h272.168c25.203,0,46.084,18.804,49.385,43.116 h-80.913c-5.953,0-10.779,4.826-10.779,10.779s4.826,10.779,10.779,10.779h81.381V490.442z">
                    </path>
                    <path
                        d="M256,121.622c-17.831,0-32.337,14.506-32.337,32.337c0,17.831,14.506,32.337,32.337,32.337s32.337-14.506,32.337-32.337 C288.337,136.128,273.831,121.622,256,121.622z M256,164.738c-5.944,0-10.779-4.835-10.779-10.779 c0-5.943,4.835-10.779,10.779-10.779c5.944,0,10.779,4.835,10.779,10.779C266.779,159.902,261.944,164.738,256,164.738z">
                    </path>
                    <path
                        d="M314.745,425.768h-0.539c-5.953,0-10.779,4.826-10.779,10.779s4.826,10.779,10.779,10.779h0.539 c5.953,0,10.779-4.826,10.779-10.779S320.698,425.768,314.745,425.768z">
                    </path>
                    <path
                        d="M70.063,195.735c5.953,0,10.779-4.826,10.779-10.779c0-5.953-4.826-10.779-10.779-10.779H10.779 C4.826,174.177,0,179.003,0,184.956c0,5.953,4.826,10.779,10.779,10.779H70.063z">
                    </path>
                    <path
                        d="M75.427,233.461c-2.977-5.156-9.57-6.922-14.724-3.945L9.36,259.158c-5.156,2.976-6.922,9.568-3.945,14.724 c1.996,3.458,5.619,5.391,9.344,5.391c1.828,0,3.682-0.466,5.38-1.445l51.342-29.642 C76.637,245.209,78.404,238.617,75.427,233.461z">
                    </path>
                    <path
                        d="M9.36,110.754l51.342,29.642c1.698,0.98,3.551,1.445,5.38,1.445c3.725,0,7.348-1.933,9.344-5.391 c2.977-5.156,1.211-11.748-3.945-14.724L20.139,92.085c-5.157-2.976-11.748-1.212-14.724,3.945 C2.438,101.185,4.205,107.778,9.36,110.754z">
                    </path>
                    <path
                        d="M501.221,174.177h-59.284c-5.953,0-10.779,4.826-10.779,10.779c0,5.953,4.826,10.779,10.779,10.779h59.284 c5.953,0,10.779-4.826,10.779-10.779C512,179.003,507.174,174.177,501.221,174.177z">
                    </path>
                    <path
                        d="M502.64,259.158l-51.342-29.642c-5.157-2.977-11.748-1.212-14.724,3.945c-2.977,5.156-1.21,11.748,3.945,14.724 l51.342,29.642c1.698,0.98,3.551,1.445,5.38,1.445c3.725,0,7.348-1.933,9.344-5.391 C509.562,268.727,507.795,262.134,502.64,259.158z">
                    </path>
                    <path
                        d="M445.917,141.841c1.828,0,3.682-0.466,5.38-1.445l51.342-29.642c5.156-2.976,6.922-9.568,3.945-14.724 c-2.977-5.156-9.568-6.923-14.724-3.945l-51.342,29.642c-5.156,2.976-6.922,9.568-3.945,14.724 C438.57,139.909,442.192,141.841,445.917,141.841z">
                    </path>
                </g>
            </g>
        </g>
    </g>
</svg>