<svg fill="#000000" height="200px" width="200px" version="1.1" id="Capa_1" xmlns="http://www.w3.org/2000/svg"
  xmlns:xlink="http://www.w3.org/1999/xlink" viewBox="0 0 60 60" xml:space="preserve">
  <g id="SVGRepo_bgCarrier" stroke-width="0"></g>
  <g id="SVGRepo_tracerCarrier" stroke-linecap="round" stroke-linejoin="round"></g>
  <g id="SVGRepo_iconCarrier">
    <g>
      <path
        d="M23.645,19.49c0.237,0.602,0.46,1.212,0.667,1.831c0.141,0.418,0.53,0.682,0.948,0.682c0.105,0,0.213-0.017,0.318-0.052 c0.523-0.176,0.805-0.743,0.63-1.267c-0.219-0.652-0.454-1.294-0.704-1.927c-0.202-0.513-0.78-0.764-1.297-0.564 C23.695,18.396,23.443,18.977,23.645,19.49z">
      </path>
      <path
        d="M21.12,14.204c0.317,0.564,0.625,1.14,0.922,1.726c0.176,0.348,0.528,0.548,0.893,0.548c0.152,0,0.306-0.034,0.451-0.108 c0.493-0.249,0.69-0.851,0.44-1.344c-0.31-0.611-0.631-1.212-0.962-1.802c-0.271-0.481-0.881-0.651-1.362-0.382 C21.021,13.112,20.85,13.722,21.12,14.204z">
      </path>
      <path
        d="M38.548,44.82c-0.527-0.162-1.088,0.13-1.252,0.657c-0.187,0.598-0.408,1.194-0.66,1.773 c-0.22,0.507,0.013,1.096,0.52,1.315c0.129,0.057,0.265,0.083,0.397,0.083c0.386,0,0.754-0.225,0.918-0.602 c0.28-0.645,0.527-1.31,0.734-1.975C39.37,45.546,39.075,44.985,38.548,44.82z">
      </path>
      <path
        d="M34.768,50.534C34.4,51.043,34,51.538,33.579,52.006c-3.458,3.842-8.405,6.026-13.585,5.994 c-5.173-0.033-10.098-2.282-13.511-6.171c-4.718-5.374-5.765-13.104-2.845-19.504c1.783,5.195,4.495,9.067,4.625,9.252 c0.274,0.39,0.788,0.529,1.224,0.336c0.436-0.194,0.674-0.67,0.568-1.135l-0.051-0.227c-1.849-8.322,0.494-17.218,6.267-23.793 l4.59-5.229c0.364-0.416,0.323-1.048-0.092-1.412c-0.415-0.362-1.046-0.322-1.411,0.092l-4.59,5.229 c-5.08,5.787-7.682,13.254-7.356,20.688c-0.92-1.848-1.897-4.154-2.545-6.644c-0.101-0.387-0.421-0.676-0.816-0.736 c-0.396-0.062-0.788,0.119-1,0.458c-4.679,7.474-3.886,17.32,1.929,23.944c3.79,4.318,9.257,6.815,15.001,6.852 c0.042,0,0.084,0,0.127,0c5.699,0,11.145-2.421,14.958-6.656c0.469-0.521,0.914-1.071,1.324-1.638 c0.323-0.447,0.223-1.072-0.225-1.396C35.717,49.987,35.092,50.087,34.768,50.534z">
      </path>
      <path
        d="M39.122,38.864c-0.003,0-0.006,0-0.009,0c-0.552,0.005-0.996,0.457-0.991,1.009l0,0.157c0,0.577-0.027,1.162-0.082,1.738 c-0.052,0.55,0.352,1.038,0.902,1.09c0.032,0.003,0.063,0.004,0.094,0.004c0.51,0,0.946-0.389,0.995-0.906 c0.06-0.639,0.09-1.286,0.09-1.926l0-0.175C40.117,39.306,39.67,38.864,39.122,38.864z">
      </path>
      <path
        d="M34.911,31.458c0.113,0.041,0.228,0.061,0.342,0.061c0.409,0,0.792-0.252,0.94-0.658l0.684-1.88 c0.188-0.52-0.079-1.093-0.598-1.281c-0.518-0.187-1.092,0.078-1.282,0.598l-0.684,1.88C34.124,30.696,34.392,31.27,34.911,31.458z ">
      </path>
      <path
        d="M32.177,38.977c-0.516-0.188-1.092,0.079-1.282,0.598l-0.684,1.88c-0.188,0.52,0.079,1.093,0.598,1.281 c0.113,0.041,0.228,0.061,0.342,0.061c0.409,0,0.792-0.252,0.94-0.658l0.684-1.88C32.963,39.738,32.696,39.165,32.177,38.977z">
      </path>
      <path
        d="M33.202,37.157c0.409,0,0.792-0.252,0.94-0.658l0.683-1.88c0.188-0.52-0.079-1.093-0.599-1.281 c-0.517-0.188-1.092,0.079-1.281,0.598l-0.683,1.88c-0.188,0.52,0.079,1.093,0.599,1.281 C32.973,37.138,33.089,37.157,33.202,37.157z">
      </path>
      <path
        d="M16.548,44.011l-0.286,0.3c-0.381,0.399-0.366,1.032,0.034,1.413C16.49,45.908,16.738,46,16.986,46 c0.264,0,0.527-0.104,0.724-0.311l0.286-0.3c0.381-0.399,0.366-1.032-0.034-1.413C17.562,43.597,16.93,43.609,16.548,44.011z">
      </path>
      <path
        d="M27.629,33.851c0.193,0.185,0.442,0.276,0.69,0.276c0.264,0,0.527-0.104,0.723-0.31l1.381-1.446 c0.381-0.399,0.367-1.032-0.033-1.414c-0.399-0.381-1.033-0.368-1.414,0.033l-1.381,1.446 C27.215,32.836,27.23,33.469,27.629,33.851z">
      </path>
      <path
        d="M31.739,28.097c-0.381,0.399-0.366,1.032,0.033,1.414c0.194,0.185,0.442,0.276,0.69,0.276c0.264,0,0.527-0.104,0.724-0.31 l1.381-1.447c0.381-0.399,0.366-1.032-0.033-1.414c-0.399-0.38-1.032-0.366-1.414,0.033L31.739,28.097z">
      </path>
      <path
        d="M24.834,35.33l-1.381,1.446c-0.381,0.399-0.367,1.032,0.033,1.414c0.193,0.185,0.442,0.276,0.69,0.276 c0.264,0,0.527-0.104,0.723-0.31l1.381-1.446c0.381-0.399,0.367-1.032-0.033-1.414C25.849,34.916,25.215,34.93,24.834,35.33z">
      </path>
      <path
        d="M20.034,42.808c0.264,0,0.527-0.104,0.724-0.31l1.381-1.447c0.381-0.399,0.366-1.032-0.033-1.414 c-0.399-0.38-1.032-0.366-1.414,0.033l-1.381,1.447c-0.381,0.399-0.366,1.032,0.033,1.414 C19.538,42.716,19.786,42.808,20.034,42.808z">
      </path>
      <path
        d="M35.631,24.586c0.031,0.214,0.115,0.423,0.284,0.584c0.161,0.154,0.363,0.228,0.569,0.254 c0.114,0.172,0.268,0.32,0.477,0.396c0.113,0.041,0.228,0.061,0.342,0.061c0.409,0,0.792-0.252,0.94-0.658l0.684-1.88 c0.016-0.043,0.01-0.087,0.02-0.131c0.001-0.005,0.002-0.011,0.003-0.016c0.013-0.065,0.033-0.126,0.033-0.193 c0-0.013,0.002-0.025,0.001-0.038c-0.002-0.064-0.026-0.122-0.04-0.184c-0.011-0.047-0.006-0.095-0.025-0.142 c-0.002-0.006-0.008-0.01-0.01-0.016c-0.004-0.01-0.008-0.021-0.012-0.031c-0.026-0.058-0.071-0.105-0.108-0.157 c-0.034-0.048-0.06-0.102-0.101-0.142c-0.004-0.004-0.006-0.01-0.01-0.015c-0.002-0.002-0.004-0.002-0.006-0.004 c-0.033-0.031-0.079-0.048-0.117-0.074c-0.062-0.044-0.121-0.091-0.191-0.12c-0.011-0.004-0.02-0.011-0.031-0.015 c-0.001-0.001-0.002-0.002-0.004-0.002c-0.025-0.009-0.052-0.005-0.077-0.012c-0.023-0.006-0.047-0.007-0.07-0.012 c-0.064-0.013-0.124-0.032-0.19-0.033c-0.015,0-0.029-0.002-0.045-0.001c-0.044,0.002-0.083,0.02-0.125,0.027 c-0.025,0.004-0.05,0.01-0.075,0.016c-0.041,0.01-0.082,0.006-0.122,0.021l-0.032,0.012c-0.002,0.001-0.004,0.001-0.006,0.002 l-1.826,0.71c-0.515,0.2-0.77,0.779-0.57,1.294C35.277,24.31,35.438,24.477,35.631,24.586z">
      </path>
      <path
        d="M19.986,31c0.121,0,0.243-0.021,0.362-0.068l1.224-0.476c0.515-0.199,0.77-0.779,0.57-1.294s-0.781-0.773-1.294-0.569 l-1.224,0.476c-0.515,0.199-0.77,0.779-0.57,1.294C19.208,30.758,19.586,31,19.986,31z">
      </path>
      <path
        d="M30.53,26.899c0.121,0,0.243-0.021,0.362-0.068l1.864-0.725c0.515-0.199,0.77-0.779,0.57-1.294s-0.781-0.772-1.294-0.569 l-1.864,0.725c-0.515,0.199-0.77,0.779-0.57,1.294C29.752,26.657,30.13,26.899,30.53,26.899z">
      </path>
      <path
        d="M24.006,28.437c0.154,0.396,0.532,0.638,0.933,0.638c0.12,0,0.243-0.021,0.362-0.068l1.864-0.725 c0.515-0.2,0.77-0.779,0.57-1.294c-0.199-0.514-0.776-0.771-1.294-0.569l-1.864,0.725C24.061,27.343,23.806,27.922,24.006,28.437z">
      </path>
      <path
        d="M58.986,0h-3.724c-0.265,0-0.52,0.105-0.707,0.293L47.728,7.12c-0.821-0.033-1.654,0.24-2.25,0.836 c-0.565,0.564-0.876,1.318-0.876,2.121c0,0.06,0.014,0.117,0.017,0.176l-6.02,7.223c-0.881,1.057-0.812,2.588,0.161,3.561 c0.5,0.499,1.164,0.774,1.869,0.774c0.617,0,1.217-0.218,1.691-0.612l7.224-6.02c0.059,0.003,0.117,0.017,0.177,0.017 c0.803,0,1.556-0.312,2.121-0.877c0.565-0.564,0.876-1.317,0.876-2.121c0-0.052-0.012-0.102-0.015-0.154l6.99-6.991 c0.188-0.188,0.293-0.441,0.293-0.707V1C59.986,0.447,59.538,0,58.986,0z M50.427,12.905c-0.375,0.376-1.04,0.374-1.414,0 l-2.121-2.121c-0.188-0.188-0.291-0.438-0.291-0.707s0.103-0.52,0.291-0.707c0.187-0.188,0.438-0.291,0.707-0.291 c0.097,0,0.188,0.028,0.279,0.055c0.17,0.048,0.316,0.124,0.428,0.236l2.121,2.121l0,0c0.112,0.113,0.188,0.259,0.236,0.427 c0.027,0.091,0.055,0.182,0.055,0.28C50.718,12.467,50.615,12.718,50.427,12.905z">
      </path>
    </g>
  </g>
</svg>