<?xml version="1.0" encoding="iso-8859-1"?>
<!-- Uploaded to: SVG Repo, www.svgrepo.com, Generator: SVG Repo Mixer Tools -->
<svg fill="#000000" height="800px" width="800px" version="1.1" id="Layer_1" xmlns="http://www.w3.org/2000/svg" xmlns:xlink="http://www.w3.org/1999/xlink" 
	 viewBox="0 0 512 512" xml:space="preserve">
<g>
	<g>
		<path d="M25.119,106.889H8.017c-4.427,0-8.017,3.589-8.017,8.017s3.589,8.017,8.017,8.017h17.102c4.427,0,8.017-3.589,8.017-8.017
			S29.546,106.889,25.119,106.889z"/>
	</g>
</g>
<g>
	<g>
		<path d="M503.983,106.889H323.875v-0.534c0-9.136-7.432-16.568-16.568-16.568H204.693c-9.136,0-16.568,7.432-16.568,16.568v0.534
			H59.324c-4.427,0-8.017,3.589-8.017,8.017s3.589,8.017,8.017,8.017h128.802v18.171H8.017c-4.427,0-8.017,3.589-8.017,8.017
			s3.589,8.017,8.017,8.017h180.109v0.534c0,9.136,7.432,16.568,16.568,16.568h8.551c0.295,0,0.534,0.239,0.534,0.534v17.102
			c0,6.228,3.458,11.659,8.551,14.489v20.25h-0.534c-9.136,0-16.568,7.432-16.568,16.568v34.739H179.04
			c-13.851,0-25.119,11.268-25.119,25.119c0,13.851,11.268,25.119,25.119,25.119h34.739v19.104c0,6.709,2.612,13.018,7.357,17.762
			l26.847,26.846v14.317h-17.637c-4.427,0-8.017,3.589-8.017,8.017c0,4.427,3.589,8.017,8.017,8.017h51.307
			c4.427,0,8.017-3.589,8.017-8.017c0-4.427-3.589-8.017-8.017-8.017h-17.637v-14.317l26.847-26.847
			c4.745-4.744,7.357-11.052,7.357-17.762V328.15h34.739c13.851,0,25.119-11.268,25.119-25.119
			c0-13.851-11.268-25.119-25.119-25.119h-26.188v-34.739c0-9.136-7.432-16.568-16.568-16.568h-0.534v-20.25
			c5.093-2.829,8.551-8.26,8.551-14.489v-17.102c0-0.295,0.239-0.534,0.534-0.534h8.551c9.136,0,16.568-7.432,16.568-16.568v-0.534
			h128.802c4.427,0,8.017-3.589,8.017-8.017s-3.589-8.017-8.017-8.017H323.875v-18.171h180.109c4.427,0,8.017-3.589,8.017-8.017
			S508.411,106.889,503.983,106.889z M282.188,347.255c0,2.427-0.945,4.708-2.662,6.425L256,377.206l-23.526-23.526
			c-1.716-1.716-2.662-3.998-2.662-6.425V328.15h18.171v17.637c0,4.427,3.589,8.017,8.017,8.017c4.427,0,8.017-3.589,8.017-8.017
			V328.15h18.171V347.255z M290.205,242.639c0.295,0,0.534,0.239,0.534,0.534v34.739h-9.086c-4.427,0-8.017,3.589-8.017,8.017
			s3.589,8.017,8.017,8.017h51.307c5.01,0,9.086,4.076,9.086,9.086c0,5.01-4.076,9.086-9.086,9.086H179.04
			c-5.01,0-9.086-4.076-9.086-9.086c0-5.01,4.076-9.086,9.086-9.086h68.409c4.427,0,8.017-3.589,8.017-8.017
			s-3.589-8.017-8.017-8.017h-26.188v-34.739c0-0.295,0.239-0.534,0.534-0.534H290.205z M238.363,226.605v-18.171h35.273v18.171
			H238.363z M307.841,157.662c0,0.295-0.239,0.534-0.534,0.534h-8.551c-9.136,0-16.568,7.432-16.568,16.568v17.102
			c0,0.295-0.239,0.534-0.534,0.534h-51.307c-0.295,0-0.534-0.239-0.534-0.534v-17.102c0-9.136-7.432-16.568-16.568-16.568h-8.551
			c-0.295,0-0.534-0.239-0.534-0.534v-51.307c0-0.295,0.239-0.534,0.534-0.534h102.614c0.295,0,0.534,0.239,0.534,0.534V157.662z"/>
	</g>
</g>
<g>
	<g>
		<path d="M503.983,141.094h-17.099c-4.427,0-8.017,3.589-8.017,8.017s3.589,8.017,8.017,8.017h17.099
			c4.427,0,8.017-3.589,8.017-8.017S508.411,141.094,503.983,141.094z"/>
	</g>
</g>
</svg>